<?xml version="1.0" encoding="UTF-8" standalone="no"?>
<!DOCTYPE svg PUBLIC "-//W3C//DTD SVG 1.1//EN"
 "http://www.w3.org/Graphics/SVG/1.1/DTD/svg11.dtd">
<!-- Generated by graphviz version 2.47.0 (20210316.0004)
 -->
<!-- Title: dependencies Pages: 1 -->
<svg width="3436pt" height="284pt"
 viewBox="0.00 0.00 3436.00 284.00" xmlns="http://www.w3.org/2000/svg" xmlns:xlink="http://www.w3.org/1999/xlink">
<g id="graph0" class="graph" transform="scale(1 1) rotate(0) translate(4 280)">
<title>dependencies</title>
<polygon fill="white" stroke="transparent" points="-4,4 -4,-280 3432,-280 3432,4 -4,4"/>
<text text-anchor="start" x="1693.01" y="-42.4" font-family="Times-12" font-weight="bold" font-size="14.00">Legend</text>
<polygon fill="#ffffb3" stroke="transparent" points="1480,-10 1480,-30 1500,-30 1500,-10 1480,-10"/>
<text text-anchor="start" x="1503.63" y="-15.4" font-family="Times-12" font-size="14.00"> &#160;Declarations</text>
<polygon fill="#8dd3c7" stroke="transparent" points="1593,-10 1593,-30 1613,-30 1613,-10 1593,-10"/>
<text text-anchor="start" x="1616.73" y="-15.4" font-family="Times-12" font-size="14.00"> &#160;Module</text>
<polygon fill="#80b1d3" stroke="transparent" points="1679,-10 1679,-30 1699,-30 1699,-10 1679,-10"/>
<text text-anchor="start" x="1702.78" y="-15.4" font-family="Times-12" font-size="14.00"> &#160;Bootstrap</text>
<polygon fill="#fdb462" stroke="transparent" points="1776,-10 1776,-30 1796,-30 1796,-10 1776,-10"/>
<text text-anchor="start" x="1799.67" y="-15.4" font-family="Times-12" font-size="14.00"> &#160;Providers</text>
<polygon fill="#fb8072" stroke="transparent" points="1872,-10 1872,-30 1892,-30 1892,-10 1872,-10"/>
<text text-anchor="start" x="1895.73" y="-15.4" font-family="Times-12" font-size="14.00"> &#160;Exports</text>
<g id="clust1" class="cluster">
<title>cluster_AppModule</title>
<polygon fill="none" stroke="black" stroke-dasharray="1,5" points="8,-70 8,-268 3420,-268 3420,-70 8,-70"/>
</g>
<g id="clust16" class="cluster">
<title>cluster_AppModule_imports</title>
<polygon fill="none" stroke="black" points="2259,-78 2259,-130 3412,-130 3412,-78 2259,-78"/>
</g>
<g id="clust18" class="cluster">
<title>cluster_AppModule_bootstrap</title>
<polygon fill="none" stroke="black" points="1617,-208 1617,-260 1741,-260 1741,-208 1617,-208"/>
</g>
<g id="clust2" class="cluster">
<title>cluster_AppModule_declarations</title>
<polygon fill="none" stroke="black" points="16,-78 16,-130 2251,-130 2251,-78 16,-78"/>
</g>
<!-- AddAdminComponent -->
<g id="node1" class="node">
<title>AddAdminComponent</title>
<polygon fill="#ffffb3" stroke="black" points="2243.33,-122 2098.67,-122 2098.67,-86 2243.33,-86 2243.33,-122"/>
<text text-anchor="middle" x="2171" y="-99.8" font-family="Times,serif" font-size="14.00">AddAdminComponent</text>
</g>
<!-- AppModule -->
<g id="node14" class="node">
<title>AppModule</title>
<polygon fill="#8dd3c7" stroke="black" points="1720.66,-187 1717.66,-191 1696.66,-191 1693.66,-187 1637.34,-187 1637.34,-151 1720.66,-151 1720.66,-187"/>
<text text-anchor="middle" x="1679" y="-164.8" font-family="Times,serif" font-size="14.00">AppModule</text>
</g>
<!-- AddAdminComponent&#45;&gt;AppModule -->
<g id="edge1" class="edge">
<title>AddAdminComponent&#45;&gt;AppModule</title>
<path fill="none" stroke="black" d="M2171,-122.02C2171,-139.37 2171,-163 2171,-163 2171,-163 1730.95,-163 1730.95,-163"/>
<polygon fill="black" stroke="black" points="1730.95,-159.5 1720.95,-163 1730.95,-166.5 1730.95,-159.5"/>
</g>
<!-- AppComponent -->
<g id="node2" class="node">
<title>AppComponent</title>
<polygon fill="#ffffb3" stroke="black" points="2080.94,-122 1975.06,-122 1975.06,-86 2080.94,-86 2080.94,-122"/>
<text text-anchor="middle" x="2028" y="-99.8" font-family="Times,serif" font-size="14.00">AppComponent</text>
</g>
<!-- AppComponent&#45;&gt;AppModule -->
<g id="edge2" class="edge">
<title>AppComponent&#45;&gt;AppModule</title>
<path fill="none" stroke="black" d="M2028,-122.01C2028,-138.05 2028,-159 2028,-159 2028,-159 1730.75,-159 1730.75,-159"/>
<polygon fill="black" stroke="black" points="1730.75,-155.5 1720.75,-159 1730.75,-162.5 1730.75,-155.5"/>
</g>
<!-- ChatComponent -->
<g id="node3" class="node">
<title>ChatComponent</title>
<polygon fill="#ffffb3" stroke="black" points="1956.77,-122 1849.23,-122 1849.23,-86 1956.77,-86 1956.77,-122"/>
<text text-anchor="middle" x="1903" y="-99.8" font-family="Times,serif" font-size="14.00">ChatComponent</text>
</g>
<!-- ChatComponent&#45;&gt;AppModule -->
<g id="edge3" class="edge">
<title>ChatComponent&#45;&gt;AppModule</title>
<path fill="none" stroke="black" d="M1903,-122.12C1903,-136.78 1903,-155 1903,-155 1903,-155 1730.87,-155 1730.87,-155"/>
<polygon fill="black" stroke="black" points="1730.87,-151.5 1720.87,-155 1730.87,-158.5 1730.87,-151.5"/>
</g>
<!-- DiscussionComponent -->
<g id="node4" class="node">
<title>DiscussionComponent</title>
<polygon fill="#ffffb3" stroke="black" points="1831.27,-122 1688.73,-122 1688.73,-86 1831.27,-86 1831.27,-122"/>
<text text-anchor="middle" x="1760" y="-99.8" font-family="Times,serif" font-size="14.00">DiscussionComponent</text>
</g>
<!-- DiscussionComponent&#45;&gt;AppModule -->
<g id="edge4" class="edge">
<title>DiscussionComponent&#45;&gt;AppModule</title>
<path fill="none" stroke="black" d="M1704.72,-122.11C1704.72,-122.11 1704.72,-140.99 1704.72,-140.99"/>
<polygon fill="black" stroke="black" points="1701.22,-140.99 1704.72,-150.99 1708.22,-140.99 1701.22,-140.99"/>
</g>
<!-- FromulaireComponent -->
<g id="node5" class="node">
<title>FromulaireComponent</title>
<polygon fill="#ffffb3" stroke="black" points="1670.54,-122 1527.46,-122 1527.46,-86 1670.54,-86 1670.54,-122"/>
<text text-anchor="middle" x="1599" y="-99.8" font-family="Times,serif" font-size="14.00">FromulaireComponent</text>
</g>
<!-- FromulaireComponent&#45;&gt;AppModule -->
<g id="edge5" class="edge">
<title>FromulaireComponent&#45;&gt;AppModule</title>
<path fill="none" stroke="black" d="M1653.97,-122.11C1653.97,-122.11 1653.97,-140.99 1653.97,-140.99"/>
<polygon fill="black" stroke="black" points="1650.47,-140.99 1653.97,-150.99 1657.47,-140.99 1650.47,-140.99"/>
</g>
<!-- ListLocationsAdminComponent -->
<g id="node6" class="node">
<title>ListLocationsAdminComponent</title>
<polygon fill="#ffffb3" stroke="black" points="1509.71,-122 1312.29,-122 1312.29,-86 1509.71,-86 1509.71,-122"/>
<text text-anchor="middle" x="1411" y="-99.8" font-family="Times,serif" font-size="14.00">ListLocationsAdminComponent</text>
</g>
<!-- ListLocationsAdminComponent&#45;&gt;AppModule -->
<g id="edge6" class="edge">
<title>ListLocationsAdminComponent&#45;&gt;AppModule</title>
<path fill="none" stroke="black" d="M1411,-122.12C1411,-136.78 1411,-155 1411,-155 1411,-155 1627.12,-155 1627.12,-155"/>
<polygon fill="black" stroke="black" points="1627.13,-158.5 1637.12,-155 1627.12,-151.5 1627.13,-158.5"/>
</g>
<!-- ListLocationsEncoursAdminComponent -->
<g id="node7" class="node">
<title>ListLocationsEncoursAdminComponent</title>
<polygon fill="#ffffb3" stroke="black" points="1294.58,-122 1051.42,-122 1051.42,-86 1294.58,-86 1294.58,-122"/>
<text text-anchor="middle" x="1173" y="-99.8" font-family="Times,serif" font-size="14.00">ListLocationsEncoursAdminComponent</text>
</g>
<!-- ListLocationsEncoursAdminComponent&#45;&gt;AppModule -->
<g id="edge7" class="edge">
<title>ListLocationsEncoursAdminComponent&#45;&gt;AppModule</title>
<path fill="none" stroke="black" d="M1173,-122.01C1173,-138.05 1173,-159 1173,-159 1173,-159 1627.16,-159 1627.16,-159"/>
<polygon fill="black" stroke="black" points="1627.16,-162.5 1637.16,-159 1627.16,-155.5 1627.16,-162.5"/>
</g>
<!-- ListeAdminComponent -->
<g id="node8" class="node">
<title>ListeAdminComponent</title>
<polygon fill="#ffffb3" stroke="black" points="1033.21,-122 884.79,-122 884.79,-86 1033.21,-86 1033.21,-122"/>
<text text-anchor="middle" x="959" y="-99.8" font-family="Times,serif" font-size="14.00">ListeAdminComponent</text>
</g>
<!-- ListeAdminComponent&#45;&gt;AppModule -->
<g id="edge8" class="edge">
<title>ListeAdminComponent&#45;&gt;AppModule</title>
<path fill="none" stroke="black" d="M959,-122.02C959,-139.37 959,-163 959,-163 959,-163 1627.18,-163 1627.18,-163"/>
<polygon fill="black" stroke="black" points="1627.18,-166.5 1637.18,-163 1627.18,-159.5 1627.18,-166.5"/>
</g>
<!-- ListeChatComponent -->
<g id="node9" class="node">
<title>ListeChatComponent</title>
<polygon fill="#ffffb3" stroke="black" points="866.77,-122 731.23,-122 731.23,-86 866.77,-86 866.77,-122"/>
<text text-anchor="middle" x="799" y="-99.8" font-family="Times,serif" font-size="14.00">ListeChatComponent</text>
</g>
<!-- ListeChatComponent&#45;&gt;AppModule -->
<g id="edge9" class="edge">
<title>ListeChatComponent&#45;&gt;AppModule</title>
<path fill="none" stroke="black" d="M799,-122.22C799,-140.83 799,-167 799,-167 799,-167 1627.15,-167 1627.15,-167"/>
<polygon fill="black" stroke="black" points="1627.15,-170.5 1637.15,-167 1627.15,-163.5 1627.15,-170.5"/>
</g>
<!-- ListeLocationsComponent -->
<g id="node10" class="node">
<title>ListeLocationsComponent</title>
<polygon fill="#ffffb3" stroke="black" points="713.03,-122 548.97,-122 548.97,-86 713.03,-86 713.03,-122"/>
<text text-anchor="middle" x="631" y="-99.8" font-family="Times,serif" font-size="14.00">ListeLocationsComponent</text>
</g>
<!-- ListeLocationsComponent&#45;&gt;AppModule -->
<g id="edge10" class="edge">
<title>ListeLocationsComponent&#45;&gt;AppModule</title>
<path fill="none" stroke="black" d="M631,-122.31C631,-142.15 631,-171 631,-171 631,-171 1627.27,-171 1627.27,-171"/>
<polygon fill="black" stroke="black" points="1627.27,-174.5 1637.27,-171 1627.27,-167.5 1627.27,-174.5"/>
</g>
<!-- LocationsAllComponent -->
<g id="node11" class="node">
<title>LocationsAllComponent</title>
<polygon fill="#ffffb3" stroke="black" points="531.43,-122 376.57,-122 376.57,-86 531.43,-86 531.43,-122"/>
<text text-anchor="middle" x="454" y="-99.8" font-family="Times,serif" font-size="14.00">LocationsAllComponent</text>
</g>
<!-- LocationsAllComponent&#45;&gt;AppModule -->
<g id="edge11" class="edge">
<title>LocationsAllComponent&#45;&gt;AppModule</title>
<path fill="none" stroke="black" d="M454,-122.28C454,-143.32 454,-175 454,-175 454,-175 1627.19,-175 1627.19,-175"/>
<polygon fill="black" stroke="black" points="1627.19,-178.5 1637.19,-175 1627.19,-171.5 1627.19,-178.5"/>
</g>
<!-- LocationsComponent -->
<g id="node12" class="node">
<title>LocationsComponent</title>
<polygon fill="#ffffb3" stroke="black" points="359.04,-122 222.96,-122 222.96,-86 359.04,-86 359.04,-122"/>
<text text-anchor="middle" x="291" y="-99.8" font-family="Times,serif" font-size="14.00">LocationsComponent</text>
</g>
<!-- LocationsComponent&#45;&gt;AppModule -->
<g id="edge12" class="edge">
<title>LocationsComponent&#45;&gt;AppModule</title>
<path fill="none" stroke="black" d="M291,-122.16C291,-144.35 291,-179 291,-179 291,-179 1627.08,-179 1627.08,-179"/>
<polygon fill="black" stroke="black" points="1627.08,-182.5 1637.08,-179 1627.08,-175.5 1627.08,-182.5"/>
</g>
<!-- ModifierLocationComponent -->
<g id="node13" class="node">
<title>ModifierLocationComponent</title>
<polygon fill="#ffffb3" stroke="black" points="204.36,-122 23.64,-122 23.64,-86 204.36,-86 204.36,-122"/>
<text text-anchor="middle" x="114" y="-99.8" font-family="Times,serif" font-size="14.00">ModifierLocationComponent</text>
</g>
<!-- ModifierLocationComponent&#45;&gt;AppModule -->
<g id="edge13" class="edge">
<title>ModifierLocationComponent&#45;&gt;AppModule</title>
<path fill="none" stroke="black" d="M114,-122.32C114,-145.66 114,-183 114,-183 114,-183 1627.14,-183 1627.14,-183"/>
<polygon fill="black" stroke="black" points="1627.14,-186.5 1637.14,-183 1627.14,-179.5 1627.14,-186.5"/>
</g>
<!-- AppComponent  -->
<g id="node20" class="node">
<title>AppComponent </title>
<polygon fill="#80b1d3" stroke="black" points="1733.44,-252 1624.56,-252 1624.56,-216 1733.44,-216 1733.44,-252"/>
<text text-anchor="middle" x="1679" y="-229.8" font-family="Times,serif" font-size="14.00">AppComponent </text>
</g>
<!-- AppModule&#45;&gt;AppComponent  -->
<g id="edge19" class="edge">
<title>AppModule&#45;&gt;AppComponent </title>
<path fill="none" stroke="black" stroke-dasharray="1,5" d="M1679,-187.11C1679,-187.11 1679,-205.99 1679,-205.99"/>
<polygon fill="black" stroke="black" points="1675.5,-205.99 1679,-215.99 1682.5,-205.99 1675.5,-205.99"/>
</g>
<!-- AppRoutingModule -->
<g id="node15" class="node">
<title>AppRoutingModule</title>
<polygon fill="#8dd3c7" stroke="black" points="3404.27,-122 3401.27,-126 3380.27,-126 3377.27,-122 3275.73,-122 3275.73,-86 3404.27,-86 3404.27,-122"/>
<text text-anchor="middle" x="3340" y="-99.8" font-family="Times,serif" font-size="14.00">AppRoutingModule</text>
</g>
<!-- AppRoutingModule&#45;&gt;AppModule -->
<g id="edge14" class="edge">
<title>AppRoutingModule&#45;&gt;AppModule</title>
<path fill="none" stroke="black" d="M3340,-122.32C3340,-145.66 3340,-183 3340,-183 3340,-183 1730.89,-183 1730.89,-183"/>
<polygon fill="black" stroke="black" points="1730.89,-179.5 1720.89,-183 1730.89,-186.5 1730.89,-179.5"/>
</g>
<!-- provideAuth(() =&gt; getAuth()) -->
<g id="node16" class="node">
<title>provideAuth(() =&gt; getAuth())</title>
<polygon fill="#8dd3c7" stroke="black" points="3257.12,-122 3254.12,-126 3233.12,-126 3230.12,-122 3074.88,-122 3074.88,-86 3257.12,-86 3257.12,-122"/>
<text text-anchor="middle" x="3166" y="-99.8" font-family="Times,serif" font-size="14.00">provideAuth(() =&gt; getAuth())</text>
</g>
<!-- provideAuth(() =&gt; getAuth())&#45;&gt;AppModule -->
<g id="edge15" class="edge">
<title>provideAuth(() =&gt; getAuth())&#45;&gt;AppModule</title>
<path fill="none" stroke="black" d="M3166,-122.16C3166,-144.35 3166,-179 3166,-179 3166,-179 1730.71,-179 1730.71,-179"/>
<polygon fill="black" stroke="black" points="1730.71,-175.5 1720.71,-179 1730.71,-182.5 1730.71,-175.5"/>
</g>
<!-- provideFirebaseApp(() =&gt; initializeApp(environment -->
<g id="node17" class="node">
<title>provideFirebaseApp(() =&gt; initializeApp(environment</title>
<polygon fill="#8dd3c7" stroke="black" points="3056.58,-122 3053.58,-126 3032.58,-126 3029.58,-122 2741.42,-122 2741.42,-86 3056.58,-86 3056.58,-122"/>
<text text-anchor="middle" x="2899" y="-99.8" font-family="Times,serif" font-size="14.00">provideFirebaseApp(() =&gt; initializeApp(environment</text>
</g>
<!-- provideFirebaseApp(() =&gt; initializeApp(environment&#45;&gt;AppModule -->
<g id="edge16" class="edge">
<title>provideFirebaseApp(() =&gt; initializeApp(environment&#45;&gt;AppModule</title>
<path fill="none" stroke="black" d="M2899,-122.28C2899,-143.32 2899,-175 2899,-175 2899,-175 1731,-175 1731,-175"/>
<polygon fill="black" stroke="black" points="1731,-171.5 1721,-175 1731,-178.5 1731,-171.5"/>
</g>
<!-- provideFirestore(() =&gt; getFirestore()) -->
<g id="node18" class="node">
<title>provideFirestore(() =&gt; getFirestore())</title>
<polygon fill="#8dd3c7" stroke="black" points="2723.14,-122 2720.14,-126 2699.14,-126 2696.14,-122 2496.86,-122 2496.86,-86 2723.14,-86 2723.14,-122"/>
<text text-anchor="middle" x="2610" y="-99.8" font-family="Times,serif" font-size="14.00">provideFirestore(() =&gt; getFirestore())</text>
</g>
<!-- provideFirestore(() =&gt; getFirestore())&#45;&gt;AppModule -->
<g id="edge17" class="edge">
<title>provideFirestore(() =&gt; getFirestore())&#45;&gt;AppModule</title>
<path fill="none" stroke="black" d="M2610,-122.31C2610,-142.15 2610,-171 2610,-171 2610,-171 1730.81,-171 1730.81,-171"/>
<polygon fill="black" stroke="black" points="1730.81,-167.5 1720.81,-171 1730.81,-174.5 1730.81,-167.5"/>
</g>
<!-- provideStorage(() =&gt; getStorage()) -->
<g id="node19" class="node">
<title>provideStorage(() =&gt; getStorage())</title>
<polygon fill="#8dd3c7" stroke="black" points="2479.15,-122 2476.15,-126 2455.15,-126 2452.15,-122 2266.85,-122 2266.85,-86 2479.15,-86 2479.15,-122"/>
<text text-anchor="middle" x="2373" y="-99.8" font-family="Times,serif" font-size="14.00">provideStorage(() =&gt; getStorage())</text>
</g>
<!-- provideStorage(() =&gt; getStorage())&#45;&gt;AppModule -->
<g id="edge18" class="edge">
<title>provideStorage(() =&gt; getStorage())&#45;&gt;AppModule</title>
<path fill="none" stroke="black" d="M2373,-122.22C2373,-140.83 2373,-167 2373,-167 2373,-167 1730.85,-167 1730.85,-167"/>
<polygon fill="black" stroke="black" points="1730.85,-163.5 1720.85,-167 1730.85,-170.5 1730.85,-163.5"/>
</g>
</g>
</svg>
