<?xml version="1.0" encoding="UTF-8" standalone="no"?>
<!DOCTYPE svg PUBLIC "-//W3C//DTD SVG 1.1//EN"
 "http://www.w3.org/Graphics/SVG/1.1/DTD/svg11.dtd">
<!-- Generated by graphviz version 2.47.0 (20210316.0004)
 -->
<!-- Title: dependencies Pages: 1 -->
<svg width="3436pt" height="284pt"
 viewBox="0.00 0.00 3436.00 284.00" xmlns="http://www.w3.org/2000/svg" xmlns:xlink="http://www.w3.org/1999/xlink">
<g id="graph0" class="graph" transform="scale(1 1) rotate(0) translate(4 280)">
<title>dependencies</title>
<polygon fill="white" stroke="transparent" points="-4,4 -4,-280 3432,-280 3432,4 -4,4"/>
<text text-anchor="start" x="1693.01" y="-42.4" font-family="Times-12" font-weight="bold" font-size="14.00">Legend</text>
<polygon fill="#ffffb3" stroke="transparent" points="1480,-10 1480,-30 1500,-30 1500,-10 1480,-10"/>
<text text-anchor="start" x="1503.63" y="-15.4" font-family="Times-12" font-size="14.00"> &#160;Declarations</text>
<polygon fill="#8dd3c7" stroke="transparent" points="1593,-10 1593,-30 1613,-30 1613,-10 1593,-10"/>
<text text-anchor="start" x="1616.73" y="-15.4" font-family="Times-12" font-size="14.00"> &#160;Module</text>
<polygon fill="#80b1d3" stroke="transparent" points="1679,-10 1679,-30 1699,-30 1699,-10 1679,-10"/>
<text text-anchor="start" x="1702.78" y="-15.4" font-family="Times-12" font-size="14.00"> &#160;Bootstrap</text>
<polygon fill="#fdb462" stroke="transparent" points="1776,-10 1776,-30 1796,-30 1796,-10 1776,-10"/>
<text text-anchor="start" x="1799.67" y="-15.4" font-family="Times-12" font-size="14.00"> &#160;Providers</text>
<polygon fill="#fb8072" stroke="transparent" points="1872,-10 1872,-30 1892,-30 1892,-10 1872,-10"/>
<text text-anchor="start" x="1895.73" y="-15.4" font-family="Times-12" font-size="14.00"> &#160;Exports</text>
<g id="clust1" class="cluster">
<title>cluster_AppModule</title>
<polygon fill="none" stroke="black" stroke-dasharray="1,5" points="8,-70 8,-268 3420,-268 3420,-70 8,-70"/>
</g>
<g id="clust2" class="cluster">
<title>cluster_AppModule_declarations</title>
<polygon fill="none" stroke="black" points="1177,-78 1177,-130 3412,-130 3412,-78 1177,-78"/>
</g>
<g id="clust16" class="cluster">
<title>cluster_AppModule_imports</title>
<polygon fill="none" stroke="black" points="16,-78 16,-130 1169,-130 1169,-78 16,-78"/>
</g>
<g id="clust18" class="cluster">
<title>cluster_AppModule_bootstrap</title>
<polygon fill="none" stroke="black" points="1814,-208 1814,-260 1938,-260 1938,-208 1814,-208"/>
</g>
<!-- AddAdminComponent -->
<g id="node1" class="node">
<title>AddAdminComponent</title>
<polygon fill="#ffffb3" stroke="black" points="3404.33,-122 3259.67,-122 3259.67,-86 3404.33,-86 3404.33,-122"/>
<text text-anchor="middle" x="3332" y="-99.8" font-family="Times,serif" font-size="14.00">AddAdminComponent</text>
</g>
<!-- AppModule -->
<g id="node14" class="node">
<title>AppModule</title>
<polygon fill="#8dd3c7" stroke="black" points="1917.66,-187 1914.66,-191 1893.66,-191 1890.66,-187 1834.34,-187 1834.34,-151 1917.66,-151 1917.66,-187"/>
<text text-anchor="middle" x="1876" y="-164.8" font-family="Times,serif" font-size="14.00">AppModule</text>
</g>
<!-- AddAdminComponent&#45;&gt;AppModule -->
<g id="edge1" class="edge">
<title>AddAdminComponent&#45;&gt;AppModule</title>
<path fill="none" stroke="black" d="M3332,-122.32C3332,-145.66 3332,-183 3332,-183 3332,-183 1928.01,-183 1928.01,-183"/>
<polygon fill="black" stroke="black" points="1928.01,-179.5 1918.01,-183 1928,-186.5 1928.01,-179.5"/>
</g>
<!-- AppComponent -->
<g id="node2" class="node">
<title>AppComponent</title>
<polygon fill="#ffffb3" stroke="black" points="3241.94,-122 3136.06,-122 3136.06,-86 3241.94,-86 3241.94,-122"/>
<text text-anchor="middle" x="3189" y="-99.8" font-family="Times,serif" font-size="14.00">AppComponent</text>
</g>
<!-- AppComponent&#45;&gt;AppModule -->
<g id="edge2" class="edge">
<title>AppComponent&#45;&gt;AppModule</title>
<path fill="none" stroke="black" d="M3189,-122.16C3189,-144.35 3189,-179 3189,-179 3189,-179 1927.83,-179 1927.83,-179"/>
<polygon fill="black" stroke="black" points="1927.83,-175.5 1917.83,-179 1927.83,-182.5 1927.83,-175.5"/>
</g>
<!-- ChatComponent -->
<g id="node3" class="node">
<title>ChatComponent</title>
<polygon fill="#ffffb3" stroke="black" points="3117.77,-122 3010.23,-122 3010.23,-86 3117.77,-86 3117.77,-122"/>
<text text-anchor="middle" x="3064" y="-99.8" font-family="Times,serif" font-size="14.00">ChatComponent</text>
</g>
<!-- ChatComponent&#45;&gt;AppModule -->
<g id="edge3" class="edge">
<title>ChatComponent&#45;&gt;AppModule</title>
<path fill="none" stroke="black" d="M3064,-122.28C3064,-143.32 3064,-175 3064,-175 3064,-175 1927.93,-175 1927.93,-175"/>
<polygon fill="black" stroke="black" points="1927.93,-171.5 1917.93,-175 1927.93,-178.5 1927.93,-171.5"/>
</g>
<!-- DiscussionComponent -->
<g id="node4" class="node">
<title>DiscussionComponent</title>
<polygon fill="#ffffb3" stroke="black" points="2992.27,-122 2849.73,-122 2849.73,-86 2992.27,-86 2992.27,-122"/>
<text text-anchor="middle" x="2921" y="-99.8" font-family="Times,serif" font-size="14.00">DiscussionComponent</text>
</g>
<!-- DiscussionComponent&#45;&gt;AppModule -->
<g id="edge4" class="edge">
<title>DiscussionComponent&#45;&gt;AppModule</title>
<path fill="none" stroke="black" d="M2921,-122.31C2921,-142.15 2921,-171 2921,-171 2921,-171 1927.93,-171 1927.93,-171"/>
<polygon fill="black" stroke="black" points="1927.93,-167.5 1917.93,-171 1927.93,-174.5 1927.93,-167.5"/>
</g>
<!-- FromulaireComponent -->
<g id="node5" class="node">
<title>FromulaireComponent</title>
<polygon fill="#ffffb3" stroke="black" points="2831.54,-122 2688.46,-122 2688.46,-86 2831.54,-86 2831.54,-122"/>
<text text-anchor="middle" x="2760" y="-99.8" font-family="Times,serif" font-size="14.00">FromulaireComponent</text>
</g>
<!-- FromulaireComponent&#45;&gt;AppModule -->
<g id="edge5" class="edge">
<title>FromulaireComponent&#45;&gt;AppModule</title>
<path fill="none" stroke="black" d="M2760,-122.22C2760,-140.83 2760,-167 2760,-167 2760,-167 1927.75,-167 1927.75,-167"/>
<polygon fill="black" stroke="black" points="1927.75,-163.5 1917.75,-167 1927.75,-170.5 1927.75,-163.5"/>
</g>
<!-- ListLocationsAdminComponent -->
<g id="node6" class="node">
<title>ListLocationsAdminComponent</title>
<polygon fill="#ffffb3" stroke="black" points="2670.71,-122 2473.29,-122 2473.29,-86 2670.71,-86 2670.71,-122"/>
<text text-anchor="middle" x="2572" y="-99.8" font-family="Times,serif" font-size="14.00">ListLocationsAdminComponent</text>
</g>
<!-- ListLocationsAdminComponent&#45;&gt;AppModule -->
<g id="edge6" class="edge">
<title>ListLocationsAdminComponent&#45;&gt;AppModule</title>
<path fill="none" stroke="black" d="M2572,-122.02C2572,-139.37 2572,-163 2572,-163 2572,-163 1927.71,-163 1927.71,-163"/>
<polygon fill="black" stroke="black" points="1927.71,-159.5 1917.71,-163 1927.71,-166.5 1927.71,-159.5"/>
</g>
<!-- ListLocationsEncoursAdminComponent -->
<g id="node7" class="node">
<title>ListLocationsEncoursAdminComponent</title>
<polygon fill="#ffffb3" stroke="black" points="2455.58,-122 2212.42,-122 2212.42,-86 2455.58,-86 2455.58,-122"/>
<text text-anchor="middle" x="2334" y="-99.8" font-family="Times,serif" font-size="14.00">ListLocationsEncoursAdminComponent</text>
</g>
<!-- ListLocationsEncoursAdminComponent&#45;&gt;AppModule -->
<g id="edge7" class="edge">
<title>ListLocationsEncoursAdminComponent&#45;&gt;AppModule</title>
<path fill="none" stroke="black" d="M2334,-122.01C2334,-138.05 2334,-159 2334,-159 2334,-159 1927.86,-159 1927.86,-159"/>
<polygon fill="black" stroke="black" points="1927.86,-155.5 1917.86,-159 1927.86,-162.5 1927.86,-155.5"/>
</g>
<!-- ListeAdminComponent -->
<g id="node8" class="node">
<title>ListeAdminComponent</title>
<polygon fill="#ffffb3" stroke="black" points="2194.21,-122 2045.79,-122 2045.79,-86 2194.21,-86 2194.21,-122"/>
<text text-anchor="middle" x="2120" y="-99.8" font-family="Times,serif" font-size="14.00">ListeAdminComponent</text>
</g>
<!-- ListeAdminComponent&#45;&gt;AppModule -->
<g id="edge8" class="edge">
<title>ListeAdminComponent&#45;&gt;AppModule</title>
<path fill="none" stroke="black" d="M2120,-122.12C2120,-136.78 2120,-155 2120,-155 2120,-155 1927.67,-155 1927.67,-155"/>
<polygon fill="black" stroke="black" points="1927.67,-151.5 1917.67,-155 1927.67,-158.5 1927.67,-151.5"/>
</g>
<!-- ListeChatComponent -->
<g id="node9" class="node">
<title>ListeChatComponent</title>
<polygon fill="#ffffb3" stroke="black" points="2027.77,-122 1892.23,-122 1892.23,-86 2027.77,-86 2027.77,-122"/>
<text text-anchor="middle" x="1960" y="-99.8" font-family="Times,serif" font-size="14.00">ListeChatComponent</text>
</g>
<!-- ListeChatComponent&#45;&gt;AppModule -->
<g id="edge9" class="edge">
<title>ListeChatComponent&#45;&gt;AppModule</title>
<path fill="none" stroke="black" d="M1904.97,-122.11C1904.97,-122.11 1904.97,-140.99 1904.97,-140.99"/>
<polygon fill="black" stroke="black" points="1901.47,-140.99 1904.97,-150.99 1908.47,-140.99 1901.47,-140.99"/>
</g>
<!-- ListeLocationsComponent -->
<g id="node10" class="node">
<title>ListeLocationsComponent</title>
<polygon fill="#ffffb3" stroke="black" points="1874.03,-122 1709.97,-122 1709.97,-86 1874.03,-86 1874.03,-122"/>
<text text-anchor="middle" x="1792" y="-99.8" font-family="Times,serif" font-size="14.00">ListeLocationsComponent</text>
</g>
<!-- ListeLocationsComponent&#45;&gt;AppModule -->
<g id="edge10" class="edge">
<title>ListeLocationsComponent&#45;&gt;AppModule</title>
<path fill="none" stroke="black" d="M1854.22,-122.11C1854.22,-122.11 1854.22,-140.99 1854.22,-140.99"/>
<polygon fill="black" stroke="black" points="1850.72,-140.99 1854.22,-150.99 1857.72,-140.99 1850.72,-140.99"/>
</g>
<!-- LocationsAllComponent -->
<g id="node11" class="node">
<title>LocationsAllComponent</title>
<polygon fill="#ffffb3" stroke="black" points="1692.43,-122 1537.57,-122 1537.57,-86 1692.43,-86 1692.43,-122"/>
<text text-anchor="middle" x="1615" y="-99.8" font-family="Times,serif" font-size="14.00">LocationsAllComponent</text>
</g>
<!-- LocationsAllComponent&#45;&gt;AppModule -->
<g id="edge11" class="edge">
<title>LocationsAllComponent&#45;&gt;AppModule</title>
<path fill="none" stroke="black" d="M1615,-122.12C1615,-136.78 1615,-155 1615,-155 1615,-155 1824.07,-155 1824.07,-155"/>
<polygon fill="black" stroke="black" points="1824.07,-158.5 1834.07,-155 1824.07,-151.5 1824.07,-158.5"/>
</g>
<!-- LocationsComponent -->
<g id="node12" class="node">
<title>LocationsComponent</title>
<polygon fill="#ffffb3" stroke="black" points="1520.04,-122 1383.96,-122 1383.96,-86 1520.04,-86 1520.04,-122"/>
<text text-anchor="middle" x="1452" y="-99.8" font-family="Times,serif" font-size="14.00">LocationsComponent</text>
</g>
<!-- LocationsComponent&#45;&gt;AppModule -->
<g id="edge12" class="edge">
<title>LocationsComponent&#45;&gt;AppModule</title>
<path fill="none" stroke="black" d="M1452,-122.01C1452,-138.05 1452,-159 1452,-159 1452,-159 1824.18,-159 1824.18,-159"/>
<polygon fill="black" stroke="black" points="1824.18,-162.5 1834.18,-159 1824.18,-155.5 1824.18,-162.5"/>
</g>
<!-- ModifierLocationComponent -->
<g id="node13" class="node">
<title>ModifierLocationComponent</title>
<polygon fill="#ffffb3" stroke="black" points="1365.36,-122 1184.64,-122 1184.64,-86 1365.36,-86 1365.36,-122"/>
<text text-anchor="middle" x="1275" y="-99.8" font-family="Times,serif" font-size="14.00">ModifierLocationComponent</text>
</g>
<!-- ModifierLocationComponent&#45;&gt;AppModule -->
<g id="edge13" class="edge">
<title>ModifierLocationComponent&#45;&gt;AppModule</title>
<path fill="none" stroke="black" d="M1275,-122.02C1275,-139.37 1275,-163 1275,-163 1275,-163 1824.22,-163 1824.22,-163"/>
<polygon fill="black" stroke="black" points="1824.22,-166.5 1834.22,-163 1824.22,-159.5 1824.22,-166.5"/>
</g>
<!-- AppComponent  -->
<g id="node20" class="node">
<title>AppComponent </title>
<polygon fill="#80b1d3" stroke="black" points="1930.44,-252 1821.56,-252 1821.56,-216 1930.44,-216 1930.44,-252"/>
<text text-anchor="middle" x="1876" y="-229.8" font-family="Times,serif" font-size="14.00">AppComponent </text>
</g>
<!-- AppModule&#45;&gt;AppComponent  -->
<g id="edge19" class="edge">
<title>AppModule&#45;&gt;AppComponent </title>
<path fill="none" stroke="black" stroke-dasharray="1,5" d="M1876,-187.11C1876,-187.11 1876,-205.99 1876,-205.99"/>
<polygon fill="black" stroke="black" points="1872.5,-205.99 1876,-215.99 1879.5,-205.99 1872.5,-205.99"/>
</g>
<!-- AppRoutingModule -->
<g id="node15" class="node">
<title>AppRoutingModule</title>
<polygon fill="#8dd3c7" stroke="black" points="1161.27,-122 1158.27,-126 1137.27,-126 1134.27,-122 1032.73,-122 1032.73,-86 1161.27,-86 1161.27,-122"/>
<text text-anchor="middle" x="1097" y="-99.8" font-family="Times,serif" font-size="14.00">AppRoutingModule</text>
</g>
<!-- AppRoutingModule&#45;&gt;AppModule -->
<g id="edge14" class="edge">
<title>AppRoutingModule&#45;&gt;AppModule</title>
<path fill="none" stroke="black" d="M1097,-122.22C1097,-140.83 1097,-167 1097,-167 1097,-167 1824.12,-167 1824.12,-167"/>
<polygon fill="black" stroke="black" points="1824.12,-170.5 1834.12,-167 1824.12,-163.5 1824.12,-170.5"/>
</g>
<!-- provideAuth(() =&gt; getAuth()) -->
<g id="node16" class="node">
<title>provideAuth(() =&gt; getAuth())</title>
<polygon fill="#8dd3c7" stroke="black" points="1014.12,-122 1011.12,-126 990.12,-126 987.12,-122 831.88,-122 831.88,-86 1014.12,-86 1014.12,-122"/>
<text text-anchor="middle" x="923" y="-99.8" font-family="Times,serif" font-size="14.00">provideAuth(() =&gt; getAuth())</text>
</g>
<!-- provideAuth(() =&gt; getAuth())&#45;&gt;AppModule -->
<g id="edge15" class="edge">
<title>provideAuth(() =&gt; getAuth())&#45;&gt;AppModule</title>
<path fill="none" stroke="black" d="M923,-122.31C923,-142.15 923,-171 923,-171 923,-171 1824.13,-171 1824.13,-171"/>
<polygon fill="black" stroke="black" points="1824.13,-174.5 1834.13,-171 1824.13,-167.5 1824.13,-174.5"/>
</g>
<!-- provideFirebaseApp(() =&gt; initializeApp(environment -->
<g id="node17" class="node">
<title>provideFirebaseApp(() =&gt; initializeApp(environment</title>
<polygon fill="#8dd3c7" stroke="black" points="813.58,-122 810.58,-126 789.58,-126 786.58,-122 498.42,-122 498.42,-86 813.58,-86 813.58,-122"/>
<text text-anchor="middle" x="656" y="-99.8" font-family="Times,serif" font-size="14.00">provideFirebaseApp(() =&gt; initializeApp(environment</text>
</g>
<!-- provideFirebaseApp(() =&gt; initializeApp(environment&#45;&gt;AppModule -->
<g id="edge16" class="edge">
<title>provideFirebaseApp(() =&gt; initializeApp(environment&#45;&gt;AppModule</title>
<path fill="none" stroke="black" d="M656,-122.28C656,-143.32 656,-175 656,-175 656,-175 1824,-175 1824,-175"/>
<polygon fill="black" stroke="black" points="1824,-178.5 1834,-175 1824,-171.5 1824,-178.5"/>
</g>
<!-- provideFirestore(() =&gt; getFirestore()) -->
<g id="node18" class="node">
<title>provideFirestore(() =&gt; getFirestore())</title>
<polygon fill="#8dd3c7" stroke="black" points="480.14,-122 477.14,-126 456.14,-126 453.14,-122 253.86,-122 253.86,-86 480.14,-86 480.14,-122"/>
<text text-anchor="middle" x="367" y="-99.8" font-family="Times,serif" font-size="14.00">provideFirestore(() =&gt; getFirestore())</text>
</g>
<!-- provideFirestore(() =&gt; getFirestore())&#45;&gt;AppModule -->
<g id="edge17" class="edge">
<title>provideFirestore(() =&gt; getFirestore())&#45;&gt;AppModule</title>
<path fill="none" stroke="black" d="M367,-122.16C367,-144.35 367,-179 367,-179 367,-179 1824.07,-179 1824.07,-179"/>
<polygon fill="black" stroke="black" points="1824.07,-182.5 1834.07,-179 1824.07,-175.5 1824.07,-182.5"/>
</g>
<!-- provideStorage(() =&gt; getStorage()) -->
<g id="node19" class="node">
<title>provideStorage(() =&gt; getStorage())</title>
<polygon fill="#8dd3c7" stroke="black" points="236.15,-122 233.15,-126 212.15,-126 209.15,-122 23.85,-122 23.85,-86 236.15,-86 236.15,-122"/>
<text text-anchor="middle" x="130" y="-99.8" font-family="Times,serif" font-size="14.00">provideStorage(() =&gt; getStorage())</text>
</g>
<!-- provideStorage(() =&gt; getStorage())&#45;&gt;AppModule -->
<g id="edge18" class="edge">
<title>provideStorage(() =&gt; getStorage())&#45;&gt;AppModule</title>
<path fill="none" stroke="black" d="M130,-122.32C130,-145.66 130,-183 130,-183 130,-183 1824.13,-183 1824.13,-183"/>
<polygon fill="black" stroke="black" points="1824.13,-186.5 1834.13,-183 1824.13,-179.5 1824.13,-186.5"/>
</g>
</g>
</svg>
